<svg xmlns="http://www.w3.org/2000/svg" viewBox="0 0 66.75 120" x="0px" y="0px"><g data-name="Layer 2"><g data-name="Layer 1"><path d="M60.34,26l-.23,0a1,1,0,0,1-.74-1.21,18.09,18.09,0,0,0,.48-4.2A18.54,18.54,0,0,0,26.62,9.23,1,1,0,0,1,25,8,20.54,20.54,0,0,1,61.85,20.55a20,20,0,0,1-.54,4.67A1,1,0,0,1,60.34,26Z"/><path d="M48.23,68.23a4.42,4.42,0,0,1-4.42-4.42V61.14a2.69,2.69,0,0,0-2.14-2.62c-.42-.09-.83-.2-1.23-.32a.73.73,0,0,0-.63.12.75.75,0,0,0-.31.61,4.56,4.56,0,1,1-9.11,0V52.7a3.06,3.06,0,0,0-.6-1.86,20.61,20.61,0,0,1-4.14-12.37,20.47,20.47,0,0,1,12.75-19,20.25,20.25,0,0,1,7.8-1.55,20.55,20.55,0,0,1,8,39.47,2.64,2.64,0,0,0-1.58,2.45v4A4.43,4.43,0,0,1,48.23,68.23Zm-8-12.06a2.79,2.79,0,0,1,.76.11c.37.11.74.2,1.12.29a4.68,4.68,0,0,1,3.7,4.57v2.67a2.42,2.42,0,0,0,2.42,2.42,2.43,2.43,0,0,0,2.43-2.42v-4a4.65,4.65,0,0,1,2.8-4.29A18.56,18.56,0,0,0,46.2,19.92a18.27,18.27,0,0,0-7,1.4A18.48,18.48,0,0,0,27.65,38.47a18.6,18.6,0,0,0,3.73,11.16,5.11,5.11,0,0,1,1,3.07v6.23a2.56,2.56,0,1,0,5.11,0,2.75,2.75,0,0,1,2.73-2.76Z"/><path d="M17.29,58.25A4.26,4.26,0,0,1,13,54v-.64a1.76,1.76,0,0,0-1.31-1.7L9.08,51a3.78,3.78,0,0,1-2.79-3.64V43.63a3.41,3.41,0,0,0-.91-2.31A20.55,20.55,0,1,1,39.71,20a1,1,0,0,1-1.87.72A18.55,18.55,0,1,0,6.86,40a5.39,5.39,0,0,1,1.43,3.66v3.68A1.74,1.74,0,0,0,9.6,49l2.63.7A3.78,3.78,0,0,1,15,53.35V54a2.26,2.26,0,0,0,4.52,0V50.78a5.06,5.06,0,0,1,4.16-5.05,18.72,18.72,0,0,0,3.88-1.12,1,1,0,1,1,.76,1.85,20.15,20.15,0,0,1-4.3,1.24,3.11,3.11,0,0,0-2.5,3.08V54A4.26,4.26,0,0,1,17.29,58.25Z"/><path d="M34.93,96A4.06,4.06,0,0,1,31,93.18L18.81,56.41a1,1,0,0,1,1.9-.63L32.93,92.55a2,2,0,0,0,2,1.45,2.08,2.08,0,0,0,2-1.46l8.6-26.1a1,1,0,0,1,1.9.63l-8.6,26.1A4.07,4.07,0,0,1,34.93,96Z"/><path d="M40.9,84.76h0c-5.6-.16-13.1-3.29-13.42-3.42a1,1,0,1,1,.78-1.84c.07,0,7.47,3.11,12.7,3.26a1,1,0,0,1,0,2Z"/><path d="M44.46,73.62c-8.91,0-21.12-5.84-21.63-6.09a1,1,0,0,1-.47-1.33,1,1,0,0,1,1.34-.47c.12.06,12.31,5.89,20.76,5.89h.11a1,1,0,0,1,0,2Z"/><path d="M31.39,58.25a1,1,0,0,1-.29,0A48.71,48.71,0,0,1,20,53a1,1,0,1,1,1.1-1.68,46.7,46.7,0,0,0,10.58,5,1,1,0,0,1,.67,1.24A1,1,0,0,1,31.39,58.25Z"/></g></g><text x="0" y="111" fill="#000000" font-size="5px" font-weight="bold" font-family="'Helvetica Neue', Helvetica, Arial-Unicode, Arial, Sans-serif">Created by Bernd Lakenbrink</text><text x="0" y="116" fill="#000000" font-size="5px" font-weight="bold" font-family="'Helvetica Neue', Helvetica, Arial-Unicode, Arial, Sans-serif">from the Noun Project</text></svg>